<svg viewBox="0 0 1024.007 1068.141" xmlns="http://www.w3.org/2000/svg"><path d="M713.69 110.376h.556c79.41 0 151.266 32.342 203.114 84.574l.017.017c52.148 52.322 84.437 124.463 84.59 204.147v.03c.004.656.006 1.433.006 2.21 0 95.99-29.405 185.113-79.698 258.852l1.023-1.59C877.333 724.81 820.935 780.16 755.892 823.572l-2.266 1.424c-70.063 47.98-150.98 87.437-237.474 114.193l-6.372 1.697-8.904 2.404-8.904-2.404c-92.84-28.534-173.72-68.06-246.837-118.104l3.08 1.99c-67.31-44.836-123.707-100.184-168.33-164.337l-1.342-2.04C29.353 586.276 0 497.216 0 401.3c0-.853.002-1.704.007-2.555v.13c.732-158.778 129.616-287.21 288.497-287.21 83.92 0 159.47 35.832 212.19 93.03l.18.2c52.628-57.93 128.164-94.235 212.185-94.52h.05zM500.877 873.79C583.37 846.79 655.04 811.084 720.272 766.63l-2.974 1.913c144.43-98.926 217.667-223.32 217.667-369.53-.038-61.234-24.796-116.68-64.832-156.902l.008.008c-39.832-40.122-95.016-64.958-156-64.958h-.85c-76.9.234-144.536 39.684-183.985 99.393l-.513.827-27.915 42.296-28.004-42.118c-40.342-59.778-107.827-98.566-184.37-98.566-121.886 0-220.8 98.35-221.712 220.022v.087c0 146.164 73.238 270.558 217.667 369.53 62.257 42.51 133.93 78.186 210.35 103.423l6.07 1.736zm233.56-253.462l-45.945-48.484c45.946-43.818 74.952-105.047 76.395-173.06l.004-.263v-.09c0-28.276-22.922-51.2-51.2-51.2-.093 0-.187 0-.28.002h.013l-.356-66.783c.186-.002.405-.003.625-.003 65.16 0 117.983 52.823 117.983 117.983 0 .22 0 .44-.002.66v-.035.4c-1.762 87-38.695 165.042-97.11 220.756l-.125.12z"/></svg>